<svg width="34" height="34" viewBox="0 0 34 34" fill="none" xmlns="http://www.w3.org/2000/svg">
<rect width="34" height="34" fill="#E5E5E5"/>
<g id="RESULT_768_SAVED" clip-path="url(#clip0_1_3992)">
<rect width="768" height="1284" transform="translate(-36 -160)" fill="white"/>
<g id="search_768__ID:8,LINK:search">
<rect id="back__COLOR:primary" x="-36" y="-86" width="768" height="246" fill="white"/>
<g id="searchicon">
<g id="icon">
<rect id="back__COLOR:stroke-2" x="0.5" y="0.5" width="33" height="33" rx="16.5" stroke="#E8E8E8"/>
<g id="icon_2">
<path id="icon__COLOR:icon-main" fill-rule="evenodd" clip-rule="evenodd" d="M18.7927 18.2638C17.3608 19.6957 15.0391 19.6957 13.6072 18.2638C12.1753 16.8318 12.1753 14.5102 13.6072 13.0783C15.0391 11.6464 17.3608 11.6464 18.7927 13.0783C20.2246 14.5102 20.2246 16.8318 18.7927 18.2638ZM19.2331 19.6467C17.2728 21.1461 14.4572 20.9994 12.6644 19.2066C10.7118 17.254 10.7118 14.0881 12.6644 12.1355C14.617 10.1829 17.7829 10.1829 19.7355 12.1355C21.5282 13.9283 21.675 16.7437 20.1758 18.7039L23.7425 22.2706L22.7997 23.2134L19.2331 19.6467Z" fill="black"/>
</g>
</g>
</g>
</g>
</g>
<defs>
<clipPath id="clip0_1_3992">
<rect width="768" height="1284" fill="white" transform="translate(-36 -160)"/>
</clipPath>
</defs>
</svg>
